<?xml version="1.0" encoding="utf-8"?>
<svg xmlns="http://www.w3.org/2000/svg" width="173" height="154" viewBox="0 0 173 154">
  <path fill-rule="evenodd" d="M 128.724 124.638 C 128.919 119.92 131.074 116.503 129.061 112.042 C 126.746 106.901 119.506 107.622 115.663 105.902 C 108.998 102.914 99.279 92.866 99.568 86.211 C 100.88 87.043 100.409 87.793 104.221 88.243 C 116.303 89.673 124.584 94.583 129.024 107.687 C 128.907 99.684 123.531 87.515 117.166 81.496 C 108.454 85.654 101.512 84.234 94.088 84.336 C 100.661 80.388 108.677 79.562 114.927 79.602 C 108.224 77.124 99.021 77.79 94.828 70.391 C 101.111 70.866 108.038 74.06 112.987 75.779 L 112.987 75.775 C 110.958 74.96 109.83 73.426 108.736 71.581 C 107.072 70.338 105.205 69.401 103.222 68.815 C 97.769 67.582 93.15 67.945 90.258 71.583 C 90.243 72.252 89.982 72.89 89.526 73.372 C 89.885 74.464 91.208 75.973 91.592 77.453 C 91.775 78.156 92.818 78.183 92.804 79.351 C 92.778 81.43 90.762 81.562 90.32 80.665 C 89.685 79.375 90.98 78.613 90.907 77.771 C 90.765 76.351 90.193 75.013 89.27 73.941 C 88.719 76.189 87.986 78.388 87.076 80.512 C 86.742 81.194 87.064 82.508 86.623 83.237 C 86.025 84.233 84.469 83.696 84.172 82.691 C 83.682 81.031 85.888 81.298 86.429 80.4 C 87.577 78.507 88.401 76.456 88.08 74.115 C 87.128 74.611 86.304 75.329 85.676 76.211 C 85.308 76.637 85.681 77.52 85.127 78.203 C 84.704 78.721 83.273 78.653 83.256 77.709 C 83.226 76.194 84.606 76.423 85.213 75.819 C 86.22 74.815 87.563 73.893 88.02 73.148 C 85.248 73.026 82.35 73.47 80.802 76.164 C 80.541 76.62 81.098 77.315 80.523 78.573 C 80.173 79.172 79.316 79.162 78.981 78.554 C 78.974 78.542 78.967 78.529 78.962 78.516 C 78.373 77.609 80.006 76.723 80.421 75.985 C 82.119 72.978 85.345 72.724 88.253 72.594 C 88.994 71.505 89.531 71.266 89.826 71.336 C 91.146 69.939 92.698 68.79 94.412 67.942 C 89.38 68.366 84.42 69.43 79.649 71.11 C 78.719 72.432 77.701 71.901 76.797 72.352 C 75.312 74.767 73.134 76.659 70.557 77.773 C 69.622 78.193 69.422 79.437 68.504 78.968 C 67.946 78.715 67.772 77.995 68.151 77.508 C 69.103 76.856 69.484 77.717 70.225 77.446 C 72.418 76.647 74.211 75.006 75.879 72.897 C 75.006 72.83 73.936 73.405 72.943 73.76 C 72.404 73.948 72.165 74.884 71.383 74.578 C 70.847 74.471 70.627 73.814 70.986 73.396 C 71.047 73.323 71.122 73.265 71.205 73.223 C 71.915 72.832 71.989 73.476 72.672 73.377 C 73.884 73.249 74.99 72.613 75.721 71.621 C 72.498 71.886 69.739 70.994 66.797 71.534 C 66.719 72.193 66.234 72.724 65.595 72.855 C 64.846 72.767 64.47 71.888 64.919 71.272 C 64.932 71.255 64.945 71.238 64.96 71.221 C 65.547 70.491 65.956 71.232 67.002 71.077 C 69.613 70.69 73.177 71.516 75.679 70.992 C 74.712 69.871 73.392 69.128 71.946 68.886 C 71.028 68.683 71.083 69.889 70.209 69.097 C 69.61 68.557 69.835 67.843 70.391 67.729 C 71.227 67.558 71.486 68.249 72.04 68.433 C 73.521 68.879 74.924 69.559 76.2 70.446 C 75.869 67.207 71.068 64.971 67.723 65.39 C 67.048 65.475 66.756 66.277 66.307 66.705 C 65.319 67.644 64.392 66.134 64.856 65.526 C 65.573 64.582 66.024 65.151 66.93 65.135 C 70.109 63.76 75.925 67.028 77.037 70.099 C 77.904 70.239 78.8 69.658 79.443 70.423 C 84.593 68.638 89.944 67.525 95.37 67.111 C 93.556 66.129 91.688 65.255 89.774 64.494 C 88.831 64.672 88.249 64.199 87.685 63.975 C 85.933 64.72 84.627 66.286 82.595 66.72 C 82.189 66.808 81.865 67.596 81.027 67.517 C 80.275 67.335 79.975 66.408 80.476 65.809 C 81.326 65.002 81.873 65.798 82.537 66.242 C 84.328 65.65 85.969 64.659 87.337 63.343 C 87.092 62.937 86.767 62.589 86.381 62.321 C 85.056 61.364 83.047 61.069 81.578 61.019 C 80.977 60.999 80.03 61.683 79.313 61.608 C 78.648 61.465 78.383 60.644 78.837 60.13 C 78.896 60.063 78.964 60.006 79.039 59.96 C 79.86 59.325 80.353 60.417 81.519 60.575 C 83.536 60.757 85.512 61.264 87.372 62.076 C 86.677 60.556 84.334 58.258 82.331 57.301 C 81.72 57.011 81.191 57.932 80.015 57.011 C 79.82 57.131 79.618 57.239 79.411 57.336 C 74.817 59.436 65.247 59.863 62.027 56.634 C 63.055 56.334 63.214 56.927 65.207 55.144 C 71.53 49.496 77.845 47.444 86.506 51.183 C 82.419 47.541 73.795 44.72 67.812 45.26 C 65.866 51.733 61.934 54.702 58.543 58.627 C 59.601 53.368 62.902 48.801 65.82 45.554 C 61.46 47.907 57.526 53.021 51.853 51.791 C 55.011 48.724 59.844 46.583 63.004 44.791 C 60.386 46.126 57.984 44.443 54.353 44.388 C 51.669 44.346 48.56 46.812 45.272 46.653 C 38.614 46.33 34.013 42.17 31.063 37.212 C 38.624 38.451 43.937 34.994 50.226 38.244 C 53.4 39.884 54.877 45.456 60.267 43.763 C 56.178 42.17 54.096 39.677 51.52 37.482 C 49.99 36.178 48.126 35.25 47.098 33.492 C 50.491 33.565 53.364 35.797 55.37 37.414 C 54.109 35.08 51.754 33.389 52.094 30.113 C 55.193 32.58 58.867 36.437 60.457 39.914 C 61.065 41.242 61.096 43.173 62.444 43.8 C 65.149 45.057 67.491 42.942 71.608 44.341 C 68.856 40.313 63.118 40.013 60.651 36.064 C 58.711 32.958 58.301 29.634 57.618 25.762 C 64.159 29.485 73.832 33.25 73.775 41.308 C 73.767 42.599 72.831 43.518 73.533 44.307 C 75.385 44.487 77.223 44.801 79.032 45.246 C 75.61 40.31 73.904 34.353 74.187 28.319 C 76.341 30.643 77.846 33.708 79.114 36.628 C 79.195 35.003 78.752 33.002 79.453 31.702 C 82.187 35.222 84.087 39.65 83.922 44.346 C 83.778 45.326 83.524 46.288 83.169 47.211 C 85.763 48.689 88.199 50.437 90.44 52.427 C 87.885 46.253 88.279 39.583 90.074 33.503 C 96.09 42.974 104.882 45.427 107.542 55.458 C 108.885 60.521 104.439 67.546 111.444 71.795 C 109.163 65.778 109.779 61.08 109.601 56.135 C 109.495 53.196 108.667 50.254 109.528 47.424 C 112.74 51.208 113.165 56.513 113.4 60.278 C 114.64 56.633 114.146 52.415 117.932 49.606 C 118.331 55.394 117.818 63.155 115.691 68.27 C 114.881 70.222 112.871 72.13 113.516 74.213 C 114.809 78.391 119.308 78.899 121.818 84.76 C 123.403 77.841 118.163 71.273 119.94 64.743 C 121.339 59.606 124.452 55.934 127.871 51.424 C 130.281 62.19 135.673 76.425 127.118 84.188 C 125.748 85.432 123.87 85.303 123.717 86.835 C 125.321 89.036 126.77 91.35 128.052 93.759 C 129.839 85.66 133.975 78.334 141.22 72.029 C 140.858 76.64 139.078 81.261 137.225 85.482 C 139.017 83.995 140.699 81.565 142.749 81.073 C 141.684 87.477 138.852 93.855 133.738 98.235 C 132.664 99.154 131.239 99.536 129.989 100.188 C 131.486 106.864 131.89 113.748 131.186 120.559 C 131.032 121.848 130.96 123.446 130.735 124.741 C 130.385 125.547 128.623 125.533 128.724 124.638 Z M 97.507 83.431 C 102.518 83.631 109.21 84.231 116.141 81.157 C 110.677 79.563 104.302 80.839 97.507 83.431 Z M 53.729 50.905 C 57.323 51.403 60.857 48.494 63.497 46.037 C 60.073 45.842 56.897 49.38 53.729 50.905 Z M 35.62 40.683 C 38.599 45.473 48.698 46.455 52.004 42.91 C 46.166 41.502 41.91 42.886 35.62 40.683 Z M 51.835 41.47 C 49.401 37.995 39.333 37.223 35.267 38.913 C 40.932 41.795 47.287 40.56 51.835 41.47 Z M 52.772 31.691 C 54.127 35.655 57.698 38.315 59.977 41.736 C 59.481 38.143 56.232 34.269 52.772 31.691 Z M 49.514 34.707 C 52.648 37.404 54.984 40.572 59.517 42.445 C 56.712 39.553 54.142 36.523 49.514 34.707 Z M 59.665 56.422 C 62.089 53.9 65.495 50.68 67.159 45.639 C 63.824 47.756 61.509 51.675 59.665 56.422 Z M 70.692 41.584 C 69.927 36.613 62.355 33.743 59.094 29.509 C 60.276 35.112 64.18 39.116 70.692 41.584 Z M 60.202 28.417 C 61.027 30.822 64.737 32.658 67.278 34.802 C 69.832 36.954 71.231 39.842 72.342 42.59 C 74.187 35.277 66.147 31.88 60.202 28.417 Z M 74.984 30.487 C 74.448 36.15 77.065 41.863 80.497 45.924 C 80.559 40.539 77.567 35.048 74.984 30.487 Z M 79.866 33.767 C 79.1 38.174 80.887 42.981 82.145 46.929 C 84.917 42.216 80.957 37.674 79.866 33.767 Z M 116.921 51.882 C 114.049 57.212 114.701 63.699 113.303 69.513 C 116.613 65.484 117.554 58.17 116.923 51.882 L 116.921 51.882 Z M 110.583 51.247 C 110.774 57.294 109.694 62.923 112.107 69.703 C 112.444 63.826 113.153 58.073 110.586 51.247 L 110.583 51.247 Z M 83.517 53.156 C 78.337 52.527 73.759 56.263 68.761 57.224 C 73.357 58.338 79.866 56.248 83.517 53.156 Z M 64.86 56.442 C 71.161 56.634 77.089 52.866 83.162 51.387 C 75.036 48.083 69.795 52.874 64.86 56.442 Z M 92.35 39.754 C 94.798 48.746 102.253 54.497 105.699 60.355 C 107.009 54.314 98.076 42.56 92.35 39.754 Z M 104.342 61.936 C 100.175 54.181 94.594 50.875 90.828 41.858 C 88.657 49.763 97.402 61.761 104.342 61.936 Z M 105.06 65.935 C 102.505 62.965 96.891 61.957 93.872 58.205 C 93.205 57.37 92.592 56.492 92.041 55.575 C 91.2 54.446 90.038 53.607 88.712 53.175 C 86.006 52.311 83.669 54.327 81.564 55.929 C 81.882 56.317 82.248 56.664 82.652 56.958 C 84.966 58.273 87.09 60.214 88.076 62.155 C 88.587 61.167 88.661 60.003 88.279 58.955 C 87.883 58.184 87.019 58.169 87.504 57.147 C 87.731 56.67 88.589 56.81 88.803 57.153 C 89.154 57.718 88.843 58.247 88.817 58.967 C 88.774 60.27 89.039 61.069 88.536 62.745 C 89.16 62.95 89.709 63.34 90.113 63.864 C 92.963 65.385 94 66.093 96.255 66.833 C 98.118 67.444 101.51 67.539 104.283 68.487 C 105.621 69.001 106.899 69.666 108.09 70.468 C 107.231 68.858 106.217 67.34 105.06 65.935 Z M 97.578 71.583 C 100.533 75.997 107.024 77.038 112.172 77.537 C 109.064 73.604 102.253 73.566 97.579 71.583 L 97.578 71.583 Z M 123.84 81.083 C 128.344 75.419 124.036 64.353 125.347 56.677 C 120.58 63.408 120.137 71.565 123.841 81.083 L 123.84 81.083 Z M 127.572 56.83 C 125.833 60.067 127.488 65.906 127.689 70.767 C 127.89 75.647 126.199 79.98 124.375 83.864 C 133.878 78.782 129.677 66.691 127.574 56.83 L 127.572 56.83 Z M 139.703 75.002 C 133.21 79.915 129.717 88.322 128.756 96.018 C 134.497 90.858 137.392 82.255 139.704 75.002 L 139.703 75.002 Z M 140.972 83.528 C 135.58 86.969 132.239 93.59 129.289 98.796 C 136.948 97.251 137.906 88.511 140.973 83.528 L 140.972 83.528 Z M 102.514 89.131 C 108.414 96.207 118.129 99.03 125.572 104.236 C 121.187 92.14 111.061 91.063 102.514 89.131 Z M 124.054 106.342 C 119.7 100.066 111.326 98.687 105.471 94.155 C 108.744 100.262 117.253 105.351 124.054 106.342 Z" style="transform-origin: 86.906px 75.545px; fill: rgb(255, 255, 255);" transform="matrix(0.707107, 0.707107, -0.707107, 0.707107, -0.000001, -0.000003)"/>
</svg>